<?xml version='1.0' encoding='utf-8'?>
<!DOCTYPE svg PUBLIC '-//W3C//DTD SVG 1.1//EN' 'http://www.w3.org/Graphics/SVG/1.1/DTD/svg11.dtd'>
<svg version="1.1" xmlns="http://www.w3.org/2000/svg" viewBox="0 0 512 512" xmlns:xlink="http://www.w3.org/1999/xlink" enable-background="new 0 0 512 512">
  <g>
    <g>
      <path d="M178.8,318.6L111,40.2c-1-5.2-5.2-8.3-10.4-8.3H16v20.9h76.2L161,331.1c1,5.2,5.2,8.3,10.4,8.3h268.2v-20.9H178.8z"/>
      <rect width="237.9" x="171.5" y="371.7" height="20.9"/>
      <path d="m396.9,419.7c-21.9,0-40.7,18.8-40.7,40.7s17.7,40.7 40.7,40.7c23,0 40.7-18.8 40.7-40.7s-18.8-40.7-40.7-40.7zm0,60.4c-10.4,0-19.8-9.4-19.8-19.8 0-10.4 8.3-19.8 19.8-19.8 11.5,0 19.8,9.4 19.8,19.8 0,10.5-9.4,19.8-19.8,19.8z"/>
      <path d="m198.6,419.7c-21.9,0-40.7,18.8-40.7,40.7s17.7,40.7 40.7,40.7c21.9,0 40.7-18.8 40.7-40.7s-18.8-40.7-40.7-40.7zm0,60.4c-10.4,0-19.8-9.4-19.8-19.8 0-10.4 8.3-19.8 19.8-19.8 10.4,0 19.8,9.4 19.8,19.8 0,10.5-9.4,19.8-19.8,19.8z"/>
      <path d="m493.7,125.9c1.5-6.8 2.3-13.8 2.3-21.1 0-52.1-41.7-93.8-93.9-93.8-52.2,0-93.9,41.7-93.9,93.8 0,0.7 0,1.4 0,2.1h-140.9c-10,0-11.7,9.1-10.4,13.6l44.9,158.5c1.1,4.3 6.3,7.3 10.4,7.3h227.5c5.2,0 9.4-3.1 11.5-8.3-0.1-0.1 41.8-149 42.5-152.1zm-91.6-94c40.7-7.10543e-15 73,32.3 73,73 0,40.7-32.3,73-73,73-40.7,0-73-32.3-73-73-0.1-40.7 32.3-73 73-73zm-91.1,95.9c2.9,11.8 8.1,22.8 15,32.3h-136.8l-8.3-32.3h130.1zm120.3,137.6h-211.8l-8.3-32.3h229.6l-9.5,32.3zm15.7-53.2h-242l-9-31.3h150.9c15.5,11.2 34.5,17.7 55.2,17.7 20,0 38.4-6.1 53.5-16.6l-8.6,30.2z"/>
      <rect width="83.5" x="360.3" y="94.4" height="20.9"/>
    </g>
  </g>
</svg>
